<svg xmlns="http://www.w3.org/2000/svg" viewBox="0 0 32 32" width="512" height="512" shape-rendering="crispEdges">
    <rect x="3" y="6" width="25" height="1" fill="#ffffff" />
    <rect x="3" y="7" width="25" height="1" fill="#ffffff" />
    <rect x="3" y="8" width="2" height="1" fill="#ffffff" />
    <rect x="26" y="8" width="2" height="1" fill="#ffffff" />
    <rect x="3" y="9" width="2" height="1" fill="#ffffff" />
    <rect x="26" y="9" width="2" height="1" fill="#ffffff" />
    <rect x="3" y="10" width="2" height="1" fill="#ffffff" />
    <rect x="26" y="10" width="2" height="1" fill="#ffffff" />
    <rect x="3" y="11" width="2" height="1" fill="#ffffff" />
    <rect x="26" y="11" width="2" height="1" fill="#ffffff" />
    <rect x="3" y="12" width="2" height="1" fill="#ffffff" />
    <rect x="26" y="12" width="2" height="1" fill="#ffffff" />
    <rect x="3" y="13" width="2" height="1" fill="#ffffff" />
    <rect x="26" y="13" width="2" height="1" fill="#ffffff" />
    <rect x="3" y="14" width="2" height="1" fill="#ffffff" />
    <rect x="26" y="14" width="2" height="1" fill="#ffffff" />
    <rect x="3" y="15" width="2" height="1" fill="#ffffff" />
    <rect x="26" y="15" width="2" height="1" fill="#ffffff" />
    <rect x="3" y="16" width="2" height="1" fill="#ffffff" />
    <rect x="26" y="16" width="2" height="1" fill="#ffffff" />
    <rect x="3" y="17" width="2" height="1" fill="#ffffff" />
    <rect x="26" y="17" width="2" height="1" fill="#ffffff" />
    <rect x="3" y="18" width="2" height="1" fill="#ffffff" />
    <rect x="26" y="18" width="2" height="1" fill="#ffffff" />
    <rect x="3" y="19" width="2" height="1" fill="#ffffff" />
    <rect x="26" y="19" width="2" height="1" fill="#ffffff" />
    <rect x="3" y="20" width="2" height="1" fill="#ffffff" />
    <rect x="26" y="20" width="2" height="1" fill="#ffffff" />
    <rect x="3" y="21" width="17" height="1" fill="#ffffff" />
    <rect x="26" y="21" width="2" height="1" fill="#ffffff" />
    <rect x="3" y="22" width="19" height="1" fill="#ffffff" />
    <rect x="26" y="22" width="2" height="1" fill="#ffffff" />
    <rect x="20" y="23" width="4" height="1" fill="#ffffff" />
    <rect x="26" y="23" width="2" height="1" fill="#ffffff" />
    <rect x="22" y="24" width="6" height="1" fill="#ffffff" />
    <rect x="24" y="25" width="4" height="1" fill="#ffffff" />
    <rect x="26" y="26" width="2" height="1" fill="#ffffff" />
</svg>