<svg xmlns="http://www.w3.org/2000/svg" viewBox="0 0 32 32" width="512" height="512" shape-rendering="crispEdges">
    <rect x="0" y="0" width="32" height="1" fill="#ffffff" />
    <rect x="0" y="1" width="32" height="1" fill="#ffffff" />
    <rect x="0" y="2" width="2" height="1" fill="#ffffff" />
    <rect x="30" y="2" width="2" height="1" fill="#ffffff" />
    <rect x="0" y="3" width="2" height="1" fill="#ffffff" />
    <rect x="30" y="3" width="2" height="1" fill="#ffffff" />
    <rect x="0" y="4" width="2" height="1" fill="#ffffff" />
    <rect x="30" y="4" width="2" height="1" fill="#ffffff" />
    <rect x="0" y="5" width="2" height="1" fill="#ffffff" />
    <rect x="14" y="5" width="4" height="1" fill="#ffffff" />
    <rect x="30" y="5" width="2" height="1" fill="#ffffff" />
    <rect x="0" y="6" width="2" height="1" fill="#ffffff" />
    <rect x="14" y="6" width="4" height="1" fill="#ffffff" />
    <rect x="30" y="6" width="2" height="1" fill="#ffffff" />
    <rect x="0" y="7" width="2" height="1" fill="#ffffff" />
    <rect x="14" y="7" width="4" height="1" fill="#ffffff" />
    <rect x="30" y="7" width="2" height="1" fill="#ffffff" />
    <rect x="0" y="8" width="2" height="1" fill="#ffffff" />
    <rect x="14" y="8" width="4" height="1" fill="#ffffff" />
    <rect x="30" y="8" width="2" height="1" fill="#ffffff" />
    <rect x="0" y="9" width="2" height="1" fill="#ffffff" />
    <rect x="14" y="9" width="4" height="1" fill="#ffffff" />
    <rect x="30" y="9" width="2" height="1" fill="#ffffff" />
    <rect x="0" y="10" width="2" height="1" fill="#ffffff" />
    <rect x="14" y="10" width="4" height="1" fill="#ffffff" />
    <rect x="30" y="10" width="2" height="1" fill="#ffffff" />
    <rect x="0" y="11" width="2" height="1" fill="#ffffff" />
    <rect x="14" y="11" width="4" height="1" fill="#ffffff" />
    <rect x="30" y="11" width="2" height="1" fill="#ffffff" />
    <rect x="0" y="12" width="2" height="1" fill="#ffffff" />
    <rect x="14" y="12" width="4" height="1" fill="#ffffff" />
    <rect x="30" y="12" width="2" height="1" fill="#ffffff" />
    <rect x="0" y="13" width="2" height="1" fill="#ffffff" />
    <rect x="14" y="13" width="4" height="1" fill="#ffffff" />
    <rect x="30" y="13" width="2" height="1" fill="#ffffff" />
    <rect x="0" y="14" width="2" height="1" fill="#ffffff" />
    <rect x="14" y="14" width="4" height="1" fill="#ffffff" />
    <rect x="30" y="14" width="2" height="1" fill="#ffffff" />
    <rect x="0" y="15" width="2" height="1" fill="#ffffff" />
    <rect x="14" y="15" width="4" height="1" fill="#ffffff" />
    <rect x="30" y="15" width="2" height="1" fill="#ffffff" />
    <rect x="0" y="16" width="2" height="1" fill="#ffffff" />
    <rect x="14" y="16" width="4" height="1" fill="#ffffff" />
    <rect x="30" y="16" width="2" height="1" fill="#ffffff" />
    <rect x="0" y="17" width="2" height="1" fill="#ffffff" />
    <rect x="14" y="17" width="4" height="1" fill="#ffffff" />
    <rect x="30" y="17" width="2" height="1" fill="#ffffff" />
    <rect x="0" y="18" width="2" height="1" fill="#ffffff" />
    <rect x="14" y="18" width="4" height="1" fill="#ffffff" />
    <rect x="30" y="18" width="2" height="1" fill="#ffffff" />
    <rect x="0" y="19" width="2" height="1" fill="#ffffff" />
    <rect x="14" y="19" width="4" height="1" fill="#ffffff" />
    <rect x="30" y="19" width="2" height="1" fill="#ffffff" />
    <rect x="0" y="20" width="2" height="1" fill="#ffffff" />
    <rect x="30" y="20" width="2" height="1" fill="#ffffff" />
    <rect x="0" y="21" width="2" height="1" fill="#ffffff" />
    <rect x="30" y="21" width="2" height="1" fill="#ffffff" />
    <rect x="0" y="22" width="2" height="1" fill="#ffffff" />
    <rect x="30" y="22" width="2" height="1" fill="#ffffff" />
    <rect x="0" y="23" width="2" height="1" fill="#ffffff" />
    <rect x="14" y="23" width="4" height="1" fill="#ffffff" />
    <rect x="30" y="23" width="2" height="1" fill="#ffffff" />
    <rect x="0" y="24" width="2" height="1" fill="#ffffff" />
    <rect x="14" y="24" width="4" height="1" fill="#ffffff" />
    <rect x="30" y="24" width="2" height="1" fill="#ffffff" />
    <rect x="0" y="25" width="2" height="1" fill="#ffffff" />
    <rect x="14" y="25" width="4" height="1" fill="#ffffff" />
    <rect x="30" y="25" width="2" height="1" fill="#ffffff" />
    <rect x="0" y="26" width="2" height="1" fill="#ffffff" />
    <rect x="14" y="26" width="4" height="1" fill="#ffffff" />
    <rect x="30" y="26" width="2" height="1" fill="#ffffff" />
    <rect x="0" y="27" width="2" height="1" fill="#ffffff" />
    <rect x="30" y="27" width="2" height="1" fill="#ffffff" />
    <rect x="0" y="28" width="2" height="1" fill="#ffffff" />
    <rect x="30" y="28" width="2" height="1" fill="#ffffff" />
    <rect x="0" y="29" width="2" height="1" fill="#ffffff" />
    <rect x="30" y="29" width="2" height="1" fill="#ffffff" />
    <rect x="0" y="30" width="32" height="1" fill="#ffffff" />
    <rect x="0" y="31" width="32" height="1" fill="#ffffff" />
</svg>